<svg width="1024" height="1024" viewBox="0 0 1024 1024" fill="none" xmlns="http://www.w3.org/2000/svg">
  <defs>
    <linearGradient id="bg" x1="124" y1="72" x2="900" y2="952" gradientUnits="userSpaceOnUse">
      <stop offset="0" stop-color="#FBF5EB"/>
      <stop offset="1" stop-color="#EADCC9"/>
    </linearGradient>
    <filter id="softShadow" x="120" y="112" width="800" height="812" filterUnits="userSpaceOnUse" color-interpolation-filters="sRGB">
      <feDropShadow dx="0" dy="28" stdDeviation="18" flood-color="#5D4F43" flood-opacity="0.18"/>
    </filter>
  </defs>
  <rect width="1024" height="1024" fill="url(#bg)"/>
  <g filter="url(#softShadow)">
    <path d="M512 150L790 390L724 438L512 256L300 438L234 390L512 150Z" fill="#103D3D"/>
    <rect x="292" y="340" width="440" height="484" rx="92" fill="#103D3D"/>
  </g>
  <rect x="360" y="438" width="152" height="48" rx="24" fill="#F6D06E"/>
  <rect x="360" y="524" width="124" height="48" rx="24" fill="#E87055"/>
  <rect x="360" y="610" width="154" height="48" rx="24" fill="#F9F1E6" fill-opacity="0.92"/>
  <path d="M688 690L798 800" stroke="#103D3D" stroke-width="94" stroke-linecap="round"/>
  <path d="M688 690L798 800" stroke="#FBF5EB" stroke-width="60" stroke-linecap="round"/>
  <circle cx="570" cy="566" r="158" stroke="#103D3D" stroke-width="82"/>
  <circle cx="570" cy="566" r="158" stroke="#FBF5EB" stroke-width="52"/>
  <path d="M570 450C508 450 458 500 458 562C458 641 570 724 570 724C570 724 682 641 682 562C682 500 632 450 570 450Z" fill="#E87055"/>
  <circle cx="570" cy="557" r="35" fill="#FBF5EB"/>
</svg>
